<svg width="24" height="24" viewBox="0 0 24 24" fill="none" xmlns="http://www.w3.org/2000/svg">
<path d="M10.875 19.3L4.275 12.7C4.175 12.6 4.104 12.4917 4.062 12.375C4.02067 12.2584 4 12.1334 4 12C4 11.8667 4.02067 11.7417 4.062 11.625C4.104 11.5084 4.175 11.4 4.275 11.3L10.875 4.70002C11.0583 4.51669 11.2873 4.42069 11.562 4.41202C11.8373 4.40402 12.075 4.50002 12.275 4.70002C12.475 4.88335 12.5793 5.11235 12.588 5.38702C12.596 5.66235 12.5 5.90002 12.3 6.10002L7.4 11H18.575C18.8583 11 19.096 11.0957 19.288 11.287C19.4793 11.479 19.575 11.7167 19.575 12C19.575 12.2834 19.4793 12.5207 19.288 12.712C19.096 12.904 18.8583 13 18.575 13H7.4L12.3 17.9C12.4833 18.0834 12.5793 18.3167 12.588 18.6C12.596 18.8834 12.5 19.1167 12.3 19.3C12.1167 19.5 11.8833 19.6 11.6 19.6C11.3167 19.6 11.075 19.5 10.875 19.3Z"/>
</svg>
