<svg width="20" height="20" viewBox="0 0 20 20" fill="none" xmlns="http://www.w3.org/2000/svg">
<path d="M16.1403 5.33124C16.1278 5.31624 16.1175 5.29999 16.1066 5.28499C14.4781 3.17905 12.3903 1.73155 10.2891 1.0628C8.29532 0.314362 5.80532 -0.0412628 2.9822 0.790612C2.9822 0.790612 0.362824 3.94374 1.56595 9.26561C1.79064 10.4753 2.23282 11.7072 2.89001 12.8978C3.02282 13.1631 3.16439 13.4322 3.31689 13.7053L3.35782 13.674C3.56672 13.9996 3.78964 14.3159 4.02595 14.6222C4.03814 14.6381 4.05064 14.6525 4.06189 14.6672C4.07407 14.6825 4.08407 14.6978 4.09626 14.7137C5.72345 16.8187 7.8122 18.2666 9.91345 18.9362C11.9063 19.684 14.3969 20.04 17.2172 19.2078C17.2172 19.2078 19.8378 16.0547 18.6331 10.7328C18.4081 9.52592 17.9666 8.2903 17.3097 7.10061C17.1734 6.82844 17.031 6.55931 16.8828 6.29343L16.8428 6.32499C16.6332 5.99917 16.41 5.68233 16.1738 5.3753C16.1613 5.36155 16.1503 5.34686 16.1381 5.33186"/>
<path d="M4.15375 3.04688C4.15375 3.04688 6.33812 8.59188 15.8131 18.1306L16.1334 17.8838C16.1334 17.8838 4.80375 5.69281 4.53375 2.75125" fill="#3fbda0"/>
<path d="M7.35311 10.6816C8.4628 10.1153 9.71717 9.50468 10.4181 8.43061C10.8053 7.83686 9.96749 7.22749 9.57655 7.82905C8.98155 8.73999 7.92405 9.23468 6.98342 9.71561C6.3428 10.0422 6.71155 11.0094 7.35342 10.6816M8.46342 12.5812C9.64936 11.8462 10.8922 11.0109 11.5478 9.75624C11.875 9.12499 10.8834 8.77093 10.5562 9.4003C10.0087 10.4512 8.82092 11.1566 7.83499 11.7684C7.22124 12.1484 7.85655 12.9575 8.46374 12.5812M9.57592 13.9309C10.7703 13.2978 11.9259 12.4934 12.6787 11.3553C13.0709 10.7637 12.2325 10.1553 11.8372 10.7537C11.1934 11.7278 10.2309 12.4209 9.20499 12.9644C8.57155 13.3012 8.93905 14.2687 9.57592 13.9309ZM6.99749 8.98186C7.72561 8.51436 8.41717 8.0328 9.01311 7.40124C9.50749 6.87686 8.66217 6.27811 8.17061 6.79999C7.65186 7.34999 7.0028 7.76249 6.36999 8.16905C5.76061 8.55905 6.39499 9.36905 6.99749 8.98186ZM11.5556 14.7516C12.2506 14.3519 12.9456 13.8672 13.3875 13.1891C13.7744 12.595 12.9369 11.9859 12.545 12.5872C12.2137 13.0966 11.7119 13.4828 11.1853 13.7853C10.9212 13.9375 10.749 14.2056 10.8587 14.4909C10.9503 14.7303 11.29 14.9047 11.5556 14.7516Z" fill="#3fbda0"/>
</svg>
