<?xml version="1.0" encoding="UTF-8" standalone="no"?>
<!-- Created with Inkscape (http://www.inkscape.org/) -->

<svg
   width="96.607635mm"
   height="55.484856mm"
   viewBox="0 0 96.607635 55.484856"
   version="1.1"
   id="svg5"
   xml:space="preserve"
   inkscape:version="1.2.1 (9c6d41e410, 2022-07-14)"
   sodipodi:docname="sokadata.svg"
   xmlns:inkscape="http://www.inkscape.org/namespaces/inkscape"
   xmlns:sodipodi="http://sodipodi.sourceforge.net/DTD/sodipodi-0.dtd"
   xmlns="http://www.w3.org/2000/svg"
   xmlns:svg="http://www.w3.org/2000/svg"><sodipodi:namedview
     id="namedview7"
     pagecolor="#ffffff"
     bordercolor="#000000"
     borderopacity="0.25"
     inkscape:showpageshadow="2"
     inkscape:pageopacity="0.0"
     inkscape:pagecheckerboard="0"
     inkscape:deskcolor="#d1d1d1"
     inkscape:document-units="mm"
     showgrid="false"
     inkscape:zoom="0.35590942"
     inkscape:cx="324.52077"
     inkscape:cy="269.73155"
     inkscape:window-width="1366"
     inkscape:window-height="745"
     inkscape:window-x="-8"
     inkscape:window-y="-8"
     inkscape:window-maximized="1"
     inkscape:current-layer="layer1" /><defs
     id="defs2" /><g
     inkscape:label="Layer 1"
     inkscape:groupmode="layer"
     id="layer1"
     transform="translate(-9.6814477,98.365504)"><g
       id="g13300"
       inkscape:export-filename="soka-logo.svg"
       inkscape:export-xdpi="96"
       inkscape:export-ydpi="96"><g
         id="g7360-7-8"
         transform="translate(-331.11159,-348.08755)"
         style="fill:#3fbda0;fill-opacity:1"
         inkscape:export-filename="logo-svg.svg"
         inkscape:export-xdpi="96"
         inkscape:export-ydpi="96"><g
           id="g7369-9-6"
           transform="matrix(4.9123217,0,0,4.9123217,-1056.504,-1169.9115)"
           style="fill:#3fbda0;fill-opacity:1"><path
             style="fill:#3fbda0;fill-opacity:1;stroke-width:0.0382918"
             d="m 288.32824,297.87355 c 0.44799,-0.26323 1.38884,-1.08252 1.43567,-1.25019 0.0239,-0.0855 -0.0249,-0.19841 -0.28064,-0.64881 -0.17026,-0.29989 -0.42334,-0.71676 -0.5624,-0.92639 l -0.25284,-0.38115 -0.18151,9.4e-4 c -0.0998,4.3e-4 -0.43317,0.0307 -0.7408,0.0673 -0.30762,0.0363 -0.85048,0.0857 -1.20633,0.10956 -0.54375,0.0364 -0.6556,0.0539 -0.70072,0.10938 -0.0656,0.0805 -0.20808,0.61425 -0.26001,0.97355 -0.0427,0.2955 -0.0523,0.98313 -0.0156,1.10656 0.0438,0.1466 0.90741,0.62951 1.52074,0.85031 0.27564,0.0992 0.67391,0.20644 0.77985,0.20994 0.046,0.002 0.25514,-0.0978 0.46455,-0.22092 z m -1.19464,-3.39254 c 0.62749,-0.0533 1.33569,-0.14113 1.44651,-0.17936 0.0299,-0.0104 0.13345,-0.15286 0.22993,-0.31675 0.0965,-0.16387 0.19955,-0.311 0.22905,-0.32697 0.0295,-0.016 0.0536,-0.0613 0.0536,-0.10073 0,-0.0395 -0.33363,-0.15832 -0.25853,-0.29258 0.23933,-0.42836 0.13821,-0.99051 0.13821,-1.07989 0,-0.11218 0.61248,-0.44101 0.33151,-0.77067 -0.12142,-0.14244 -0.53199,-0.59525 -0.72783,-0.76491 l -0.35609,-0.30846 -0.25432,-0.0207 c -0.54244,-0.0441 -1.48417,0.0611 -2.0439,0.22855 -0.26733,0.08 -0.34926,0.15234 -0.69814,0.61657 -0.36808,0.48979 -0.7763,1.32293 -0.77622,1.5842 7e-5,0.249 0.55401,1.06403 1.05159,1.5472 l 0.29127,0.28285 0.34851,-0.0216 c 0.19168,-0.0119 0.63936,-0.0464 0.99482,-0.0766 z m 1.81775,-0.88481 c -0.0161,-0.0234 -0.0111,-0.0589 0.0111,-0.0789 0.0269,-0.0241 0.0502,-0.022 0.0697,0.007 0.0161,0.0234 0.0111,0.0589 -0.0111,0.079 -0.0269,0.0241 -0.0502,0.0221 -0.0697,-0.007 z m 1.71248,-1.76253 c 0.20869,-0.0308 0.67222,-0.0593 1.03006,-0.0633 l 0.65058,-0.008 -0.002,-0.2541 c -9.1e-4,-0.13975 -0.036,-0.41744 -0.0769,-0.61707 -0.0743,-0.36256 -0.0746,-0.36324 -0.30045,-0.56401 -0.12437,-0.11057 -0.33517,-0.27363 -0.46848,-0.3624 -0.30983,-0.20633 -1.28763,-0.65279 -1.42793,-0.652 -0.26646,0.002 -1.46028,0.70293 -1.46028,0.85797 0,0.0255 0.12306,0.15722 0.27347,0.29266 0.37352,0.33638 0.68173,0.69228 0.93625,1.08114 0.23586,0.36039 0.31454,0.21649 0.43233,0.18904 0.0445,-0.0104 0.20509,0.13023 0.41379,0.0993 z m -0.55335,-0.0144 c -0.006,0.0191 -0.10567,-0.13415 -0.19721,-0.27391 -0.25915,-0.39558 -0.54946,-0.73479 -0.90748,-1.06041 -0.29367,-0.26706 -0.32266,-0.30543 -0.27235,-0.3604 0.0989,-0.10808 0.61148,-0.43222 0.93606,-0.59199 0.37043,-0.18235 0.41756,-0.18072 0.9054,0.0312 0.59588,0.25894 1.37416,0.75938 1.49337,0.96024 0.0668,0.1125 0.17751,0.6117 0.20442,0.92148 l 0.0228,0.26316 -0.66222,9.4e-4 c -0.44188,9.4e-4 -0.80031,0.0225 -1.07715,0.0653 -0.22822,0.0351 -0.41613,-0.0448 -0.42245,-0.0257 z m -3.99957,-1.63167 c 0.56764,-0.13096 1.04757,-0.1847 1.65055,-0.18484 l 0.46629,-1e-4 0.24061,-0.18412 c 0.13234,-0.10128 0.39052,-0.27425 0.57374,-0.3844 0.18321,-0.11017 0.34284,-0.21443 0.35473,-0.23172 0.0502,-0.0728 -0.18895,-0.14029 -0.64537,-0.18189 -1.08121,-0.0985 -2.18508,0.0832 -3.15285,0.51898 -0.41048,0.18484 -0.54532,0.27094 -0.54532,0.34813 0,0.0361 0.11951,0.13253 0.28945,0.2335 0.15919,0.0945 0.29429,0.17192 0.30021,0.17192 0.005,0 0.21652,-0.0475 0.46796,-0.10546 z m -0.7721,-0.13342 -0.2598,-0.17085 0.0982,-0.0715 c 0.15993,-0.11648 0.75789,-0.37268 1.14848,-0.49209 0.65651,-0.20074 0.97078,-0.24268 1.81774,-0.24268 0.80942,0 1.15124,0.0305 1.15124,0.10249 0,0.024 -0.14087,0.12787 -0.31305,0.23089 -0.17218,0.10303 -0.41874,0.26828 -0.54791,0.36725 l -0.23485,0.17993 -0.73461,0.019 c -0.61606,0.0159 -0.80632,0.0349 -1.17895,0.1176 -0.68888,0.15296 -0.65065,0.15458 -0.94651,-0.04 z"
             id="path304-8-3-8-1-2-5"
             sodipodi:nodetypes="csssccsssssssccscssssssscssscscccssscscsscsssssssscccsscssssccsccsscsscssssssscsssssscssscss" /><text
             xml:space="preserve"
             style="font-size:7.76111px;fill:#3fbda0;fill-opacity:1;stroke-width:0.264583"
             x="287.707"
             y="296.94922"
             id="text613-7-2-3-4-7"><tspan
               sodipodi:role="line"
               style="font-size:7.76111px;fill:#3fbda0;fill-opacity:1;stroke-width:0.264583"
               x="287.707"
               y="296.94922"
               id="tspan1664-5-8">S<tspan
   style="font-size:6.35px;fill:#3fbda0;fill-opacity:1"
   id="tspan1564-1-4-6">oka</tspan><tspan
   style="font-size:5.64444px;fill:#3fbda0;fill-opacity:1"
   id="tspan1666-5-5" /></tspan></text><text
             xml:space="preserve"
             style="font-size:2.82222px;fill:#3fbda0;fill-opacity:1;stroke:#000000;stroke-width:0.264583;stroke-opacity:1"
             x="298.09726"
             y="300.24673"
             id="text1679-4-2"><tspan
               sodipodi:role="line"
               id="tspan1677-2-5"
               style="font-size:2.82222px;fill:#3fbda0;fill-opacity:1;stroke:none;stroke-width:0.264583"
               x="298.09726"
               y="300.24673">data</tspan></text></g></g></g></g></svg>
