<svg width="24" height="24" viewBox="0 0 24 24" fill="none" xmlns="http://www.w3.org/2000/svg">
<path d="M17.66 11.2C17.43 10.9 17.15 10.64 16.89 10.38C16.22 9.78 15.46 9.35 14.82 8.72C13.33 7.26 13 4.85 13.95 3C13 3.23 12.17 3.75 11.46 4.32C8.86999 6.4 7.84999 10.07 9.06999 13.22C9.10999 13.32 9.14999 13.42 9.14999 13.55C9.14999 13.77 8.99999 13.97 8.79999 14.05C8.56999 14.15 8.32999 14.09 8.13999 13.93C8.08289 13.8828 8.03537 13.8251 7.99999 13.76C6.86999 12.33 6.68999 10.28 7.44999 8.64C5.77999 10 4.86999 12.3 4.99999 14.47C5.05999 14.97 5.11999 15.47 5.28999 15.97C5.42999 16.57 5.69999 17.17 5.99999 17.7C7.07999 19.43 8.94999 20.67 10.96 20.92C13.1 21.19 15.39 20.8 17.03 19.32C18.86 17.66 19.5 15 18.56 12.72L18.43 12.46C18.22 12 17.66 11.2 17.66 11.2ZM14.5 17.5C14.22 17.74 13.76 18 13.4 18.1C12.28 18.5 11.16 17.94 10.5 17.28C11.69 17 12.4 16.12 12.61 15.23C12.78 14.43 12.46 13.77 12.33 13C12.21 12.26 12.23 11.63 12.5 10.94C12.69 11.32 12.89 11.7 13.13 12C13.9 13 15.11 13.44 15.37 14.8C15.41 14.94 15.43 15.08 15.43 15.23C15.46 16.05 15.1 16.95 14.5 17.5Z" />
</svg>
